<svg width="89" height="24" viewBox="0 0 89 24" fill="none" xmlns="http://www.w3.org/2000/svg">
<path d="M12.2034 22.4462C10.8678 22.6819 9.50957 22.7517 8.10417 22.9385L3.81814 10.3816V23.4763L0 24V0.00349142H3.5615L8.43413 13.6149V0.00349142H12.2051L12.2034 22.4462ZM19.583 8.78854L24.5962 8.7187V12.467L19.583 12.5368V18.1122L26.2128 17.7141V21.3219L15.8339 22.1424V0.00349142H26.2128V3.7518H19.583V8.78854ZM40.1516 3.7518H36.261V20.9937L32.5127 21.0408V3.75093H28.6238V0.00349142H40.1498L40.1516 3.7518ZM46.2428 8.53102H51.373V12.2793H46.2428V20.7833H42.5635V0.00349142H53.0359V3.7518H46.2419L46.2428 8.53102ZM59.1271 17.5029L65.4994 17.8311V21.5323L55.3779 21.0408V0.00349142H59.1262L59.1271 17.5029ZM68.662 21.7889L72.3396 22.07V0.00349142H68.662V21.7889ZM88.7618 0.00261898L84.0061 11.4117L88.7618 23.9904L84.5456 23.3113L81.8518 16.3768L79.1108 22.7491L75.0814 22.2568L79.9069 11.2694L75.5493 0H79.5787L82.0386 6.30247L84.6626 0L88.7618 0.00261898Z" fill="#FFFFFF"/>
</svg>

