<svg width="142" height="32" viewBox="0 0 142 32" fill="none" xmlns="http://www.w3.org/2000/svg">
<path d="M40.4314 7.81104H43.9338L50.7873 18.6961V7.81104H53.8613V23.9622H50.5857L43.5054 12.7496V23.9622H40.4314V7.81104Z" fill="#FFFFFF"/>
<path d="M56.1543 15.8992C56.1543 11.3386 59.8834 7.63466 64.4441 7.65986C69.0047 7.65986 72.7086 11.389 72.6834 15.9496C72.6834 20.5103 68.9543 24.2142 64.3937 24.189C59.833 24.189 56.1543 20.4851 56.1543 15.8992ZM69.6346 15.8992C69.6094 13.0268 67.2409 10.7087 64.3685 10.7339C61.496 10.7591 59.1779 13.1276 59.2031 16C59.2283 18.8473 61.5464 21.1402 64.3937 21.1654C67.3165 21.1654 69.6346 18.7969 69.6346 15.8992Z" fill="#FFFFFF"/>
<path d="M72.8345 7.81104H76.0093L79.7636 19.2756L83.5431 7.81104H86.7179L81.3258 23.9622H78.2266L72.8345 7.81104Z" fill="#FFFFFF"/>
<path d="M88.9607 7.81104H98.5355V10.7591H92.0347V14.3874H98.5355V17.3354H92.0347V21.0394H98.5355V23.9874H88.9607V7.81104Z" fill="#FFFFFF"/>
<path d="M105.137 10.7591H100.854V7.81104H112.52V10.7591H108.236V23.9622H105.137V10.7591Z" fill="#FFFFFF"/>
<path d="M118.516 10.7591H114.233V7.81104H125.899V10.7591H121.59V23.9622H118.516V10.7591Z" fill="#FFFFFF"/>
<path d="M130.712 7.81104H133.811L139.556 23.9622H136.356L135.373 21.1654H129.175L128.192 23.9874H124.992L130.712 7.81104ZM130.183 18.2173H134.34L132.249 12.1953L130.183 18.2173Z" fill="#FFFFFF"/>
<path d="M18.0315 1.78899C10.2709 1.7386 3.94644 8.01261 3.92125 15.7732C3.89605 22.3496 8.43148 28.0693 14.8315 29.5307V24.7685L11.5307 21.4929H8.55747C8.22991 21.9213 7.62518 21.9969 7.19684 21.6693C6.76849 21.3417 6.6929 20.737 7.02046 20.3087C7.34802 19.8803 7.95274 19.8047 8.38109 20.1323C8.45668 20.1827 8.50707 20.2331 8.55747 20.3087H10.3464L6.7181 16.6551C6.41574 16.6803 6.11337 16.5795 5.9118 16.378C5.53385 16 5.53385 15.3701 5.9118 14.9921C6.28975 14.6142 6.91967 14.6142 7.29763 14.9921C7.4992 15.1937 7.62518 15.4961 7.57479 15.7984L9.23778 17.4614V15.4457L7.19684 13.4551C6.6677 13.5307 6.18896 13.1528 6.11337 12.5984C6.03778 12.0693 6.41574 11.5906 6.97007 11.515C7.4992 11.4394 7.97794 11.8173 8.05353 12.3717C8.05353 12.4473 8.05353 12.548 8.05353 12.6236L10.422 14.9921V18.6961L14.8315 23.1055V21.0898L12.7401 18.9984H12.6898C12.1606 18.9984 11.7071 18.5701 11.7071 18.0158C11.7071 17.4614 12.1354 17.0331 12.6898 17.0331C13.2441 17.0331 13.6724 17.4614 13.6724 18.0158C13.6724 18.0914 13.6724 18.1417 13.6472 18.2173L16.0157 20.5858V29.7323C16.4693 29.8079 16.948 29.8331 17.4268 29.8583V19.9811L9.36377 11.9181V8.51655C8.93542 8.18899 8.85983 7.58427 9.18739 7.15592C9.51495 6.72757 10.1197 6.65198 10.548 6.97954C10.9764 7.3071 11.052 7.91182 10.7244 8.34017C10.674 8.41576 10.6236 8.46616 10.548 8.51655V11.4394L14.7811 15.6725V13.6567L12.8661 11.7417C12.337 11.8173 11.8583 11.4394 11.7827 10.8851C11.7071 10.3307 12.085 9.87718 12.6394 9.80159C13.1937 9.726 13.6472 10.104 13.7228 10.6583C13.7228 10.7339 13.7228 10.8347 13.7228 10.9102L14.8063 11.9937V9.97797L12.9669 8.1386V6.14805C12.5386 5.82049 12.463 5.21576 12.7905 4.78742C13.1181 4.35907 13.7228 4.28348 14.1512 4.61104C14.5795 4.9386 14.6551 5.54332 14.3275 5.97167C14.2772 6.04726 14.2268 6.09765 14.1512 6.14805V7.65986L15.9905 9.49923V16.9071L17.4268 18.3433V16.6299C16.9984 16.3024 16.9228 15.6977 17.2504 15.2693C17.5779 14.841 18.1827 14.7654 18.611 15.0929C19.0394 15.4205 19.115 16.0252 18.7874 16.4536C18.737 16.5291 18.6866 16.5795 18.611 16.6299V21.9969L20.0472 20.5606V14.5134L17.4268 11.8929V5.21576C16.9984 4.8882 16.9228 4.28348 17.2504 3.85513C17.5779 3.42679 18.1827 3.35119 18.611 3.67875C19.0394 4.00631 19.115 4.61104 18.7874 5.03938C18.737 5.11497 18.6866 5.16537 18.611 5.21576V11.4142L21.2315 14.0347V15.6725L22.6425 14.2614V13.4551L20.0472 10.8347V8.61734C19.6189 8.28978 19.5433 7.68505 19.8709 7.25671C20.1984 6.82836 20.8031 6.75277 21.2315 7.08033C21.6598 7.40789 21.7354 8.01261 21.4079 8.44096C21.3575 8.51655 21.3071 8.56694 21.2315 8.61734V10.3307L22.6677 11.7669V6.4756C22.2394 6.14805 22.1638 5.54332 22.4913 5.11497C22.8189 4.68663 23.4236 4.61104 23.852 4.9386C24.2803 5.26616 24.3559 5.87088 24.0283 6.29923C23.9779 6.37482 23.9275 6.42521 23.852 6.4756V14.7402L21.2567 17.3606V19.3764L22.2898 18.3433C22.2898 18.2929 22.2898 18.2425 22.2898 18.1921C22.2898 17.663 22.7181 17.2095 23.2724 17.2095C23.8268 17.2095 24.2551 17.6378 24.2551 18.1921C24.2551 18.7465 23.8016 19.1496 23.2472 19.1496H23.1464L18.6362 23.6599V29.8583C19.115 29.8331 19.5937 29.8079 20.0472 29.7323V24.2646L25.2882 19.0236V8.31497C24.8598 7.98741 24.7842 7.38269 25.1118 6.95434C25.2882 6.72757 25.5653 6.57639 25.8677 6.57639C26.3968 6.57639 26.8504 7.00474 26.8504 7.53387C26.8504 7.83623 26.6992 8.1134 26.4724 8.31497V12.4473L27.5559 11.3638C27.4803 10.8347 27.8583 10.3559 28.4126 10.2803C28.9417 10.2047 29.4205 10.5827 29.4961 11.137C29.5716 11.6662 29.1937 12.1449 28.6394 12.2205C28.5638 12.2205 28.463 12.2205 28.3874 12.2205L26.4724 14.1354V17.8646L28.5134 15.8236C28.4378 15.2945 28.8157 14.7906 29.3449 14.7402C29.874 14.6898 30.3779 15.0425 30.4283 15.5717C30.4787 16.1008 30.126 16.6047 29.5968 16.6551C29.5212 16.6551 29.4205 16.6551 29.3449 16.6551L25.6913 20.3087H27.5055C27.8331 19.8803 28.4378 19.8047 28.8661 20.1323C29.2945 20.4599 29.3701 21.0646 29.0425 21.4929C28.7149 21.9213 28.1102 21.9969 27.6819 21.6693C27.6063 21.6189 27.5559 21.5685 27.5055 21.4929H24.4819L21.2315 24.7685V29.5307C28.7905 27.8173 33.5275 20.2835 31.8142 12.7244C30.3527 6.27403 24.6079 1.7386 18.0315 1.78899Z" fill="#FFFFFF"/>
</svg>

