<svg width="101" height="24" viewBox="0 0 101 24" fill="none" xmlns="http://www.w3.org/2000/svg">
<g clip-path="url(#clip0_39_257)">
<path d="M23.6687 22.4082H18.0576L16.3505 18.2881H7.04442L5.4886 22.4082H0L8.38415 1.60626H14.3914L23.6687 22.4082ZM11.503 6.56184L8.42017 14.6651H14.8235L11.503 6.56184Z" fill="#FFFFFF"/>
<path d="M43.9088 1.60626H48.425V22.4082H43.2389V9.443L37.6279 15.9688H36.8356L31.2245 9.41419V22.3794H26.0385V1.60626H30.5547L37.2317 9.34216L43.9088 1.60626Z" fill="#FFFFFF"/>
<path d="M61.5631 1.60626C69.1549 1.60626 73.0877 6.33135 73.0877 12.036C73.0877 18.0144 69.3062 22.4082 61.0084 22.4082H52.3794V1.60626H61.5631ZM57.5655 18.5979H60.9508C66.1657 18.5979 67.7215 15.0612 67.7215 12.0072C67.7215 8.40578 65.7984 5.41659 60.8932 5.41659H57.5655V18.5979Z" fill="#FFFFFF"/>
<path d="M94.0984 6.54022H83.3733L76.8403 0H100.639V23.8055L94.0984 17.2653V6.54022Z" fill="#FFFFFF"/>
<path d="M83.3662 17.2725V7.85114L76.6387 14.5786V24.0072H86.06L92.7875 17.2725H83.3662Z" fill="#FFFFFF"/>
</g>
<defs>
<clipPath id="clip0_39_257">
<rect width="100.639" height="24" fill="white"/>
</clipPath>
</defs>
</svg>

