<svg width="44" height="51" viewBox="0 0 44 51" fill="none" xmlns="http://www.w3.org/2000/svg">
<path d="M2.28502 26.8354C2.28502 28.3935 2.16038 28.9009 1.83987 29.2748C1.48316 29.5961 1.02006 29.7737 0.540039 29.7734L0.664681 30.6637C1.40888 30.6738 2.13099 30.4109 2.69456 29.9248C2.99779 29.555 3.22344 29.1279 3.35804 28.669C3.49265 28.2102 3.53345 27.7289 3.47802 27.2539V21.3601H2.28502V26.7998V26.8354Z" fill="#F9FAFB"/>
<path d="M11.1822 26.1332C11.1822 26.8009 11.1822 27.3974 11.2356 27.9138H10.1762L10.105 26.8543C9.88336 27.2292 9.56645 27.5387 9.18646 27.7514C8.80646 27.964 8.37693 28.0723 7.94153 28.0651C6.90879 28.0651 5.68018 27.5043 5.68018 25.2162V21.4146H6.87318V24.9758C6.87318 26.2133 7.25601 27.0413 8.33327 27.0413C8.5549 27.0437 8.77477 27.0018 8.98 26.9181C9.18523 26.8344 9.37167 26.7105 9.5284 26.5538C9.68512 26.3971 9.80898 26.2106 9.8927 26.0054C9.97641 25.8002 10.0183 25.5803 10.0159 25.3586V21.3701H11.2089V26.0976L11.1822 26.1332Z" fill="#F9FAFB"/>
<path d="M13.4436 23.5326C13.4436 22.7047 13.4436 22.028 13.3901 21.4137H14.4585L14.5119 22.5266C14.7499 22.1245 15.0926 21.7946 15.5034 21.572C15.9142 21.3493 16.3777 21.2423 16.8445 21.2624C18.4292 21.2624 19.6222 22.5889 19.6222 24.5654C19.6222 26.898 18.1888 28.0554 16.6397 28.0554C16.2432 28.073 15.8489 27.9881 15.4948 27.8087C15.1408 27.6294 14.839 27.3617 14.6187 27.0315V30.5927H13.4436V23.5594V23.5326ZM14.6187 25.2687C14.622 25.4303 14.6399 25.5912 14.6722 25.7495C14.7732 26.1448 15.0031 26.4951 15.3256 26.7451C15.6481 26.995 16.0447 27.1303 16.4528 27.1294C17.7081 27.1294 18.447 26.1056 18.447 24.6188C18.447 23.319 17.7526 22.2061 16.4973 22.2061C16.0005 22.2468 15.5356 22.4673 15.1898 22.8262C14.844 23.1851 14.6409 23.6579 14.6187 24.1559V25.2687Z" fill="#F9FAFB"/>
<path d="M21.7478 21.4077L23.1812 25.2449C23.3325 25.6722 23.4928 26.1886 23.5996 26.5714C23.7243 26.1797 23.8578 25.6811 24.0181 25.2182L25.3179 21.4077H26.5732L24.7926 26.0372C23.9023 28.263 23.3593 29.4115 22.5402 30.1059C22.1276 30.4827 21.6247 30.7465 21.0801 30.8716L20.7863 29.8744C21.1671 29.7493 21.5206 29.5529 21.8279 29.2957C22.2623 28.9418 22.607 28.4903 22.834 27.9781C22.8826 27.8894 22.9157 27.793 22.9319 27.6932C22.9218 27.5858 22.8947 27.4806 22.8518 27.3816L20.4302 21.3899H21.73L21.7478 21.4077Z" fill="#F9FAFB"/>
<path d="M29.7402 19.54V21.4097H31.4495V22.3H29.7402V25.8077C29.7402 26.609 29.9717 27.0719 30.6305 27.0719C30.8645 27.0758 31.0979 27.0488 31.3249 26.9918L31.3783 27.8821C31.038 28 30.6789 28.0543 30.3189 28.0424C30.0805 28.0573 29.8417 28.0205 29.6188 27.9344C29.396 27.8483 29.1944 27.7151 29.0279 27.5438C28.6653 27.0588 28.4999 26.4543 28.565 25.8522V22.2911H27.55V21.4008H28.5828V19.816L29.7402 19.54Z" fill="#F9FAFB"/>
<path d="M33.6471 24.869C33.623 25.171 33.6647 25.4745 33.7693 25.7588C33.874 26.043 34.0391 26.3012 34.2533 26.5154C34.4674 26.7295 34.7256 26.8947 35.0098 26.9993C35.2941 27.104 35.5977 27.1456 35.8996 27.1215C36.5103 27.1351 37.117 27.0199 37.6802 26.7832L37.885 27.6735C37.1939 27.9581 36.4508 28.0946 35.7037 28.0741C35.2682 28.1039 34.8314 28.0392 34.4232 27.8843C34.015 27.7294 33.6452 27.4881 33.339 27.1769C33.0329 26.8657 32.7977 26.4919 32.6496 26.0813C32.5014 25.6706 32.4439 25.2328 32.4808 24.7978C32.4808 22.8392 33.6471 21.29 35.5524 21.29C37.6891 21.29 38.2233 23.1597 38.2233 24.3527C38.2347 24.5365 38.2347 24.7208 38.2233 24.9046H33.6204L33.6471 24.869ZM37.1371 23.9787C37.1715 23.7407 37.1544 23.4981 37.0871 23.2672C37.0197 23.0363 36.9037 22.8226 36.7468 22.6403C36.5898 22.4581 36.3957 22.3116 36.1774 22.2108C35.959 22.1099 35.7216 22.057 35.4812 22.0557C34.992 22.0911 34.5337 22.3079 34.1961 22.6637C33.8584 23.0194 33.6659 23.4884 33.656 23.9787H37.1371Z" fill="#F9FAFB"/>
<path d="M40.0334 23.4323C40.0334 22.6666 40.0334 22.0078 39.98 21.4024H41.0483V22.6755H41.1018C41.2139 22.2826 41.4456 21.9343 41.7647 21.679C42.0837 21.4238 42.4744 21.2742 42.8824 21.251C42.9946 21.2363 43.1084 21.2363 43.2207 21.251V22.3639C43.0846 22.3482 42.9472 22.3482 42.8111 22.3639C42.407 22.3796 42.0224 22.5418 41.7291 22.8203C41.4358 23.0989 41.254 23.4746 41.2175 23.8774C41.1842 24.0596 41.1663 24.2442 41.1641 24.4294V27.8927H39.9889V23.4412L40.0334 23.4323Z" fill="#F9FAFB"/>
<path d="M39.5106 3.52559C39.5471 4.1237 39.4048 4.71915 39.1018 5.23609C38.7987 5.75304 38.3487 6.16807 37.8089 6.42833C37.2692 6.68858 36.6641 6.78227 36.071 6.69747C35.4778 6.61266 34.9232 6.3532 34.478 5.95213C34.0328 5.55107 33.7171 5.02655 33.571 4.4454C33.425 3.86425 33.4552 3.25277 33.6579 2.68887C33.8606 2.12497 34.2265 1.63416 34.7091 1.27898C35.1917 0.923794 35.7692 0.72031 36.3678 0.694447C36.7603 0.672848 37.1532 0.729056 37.5239 0.859837C37.8947 0.990618 38.2359 1.19339 38.5279 1.4565C38.82 1.71961 39.0572 2.03786 39.2258 2.39295C39.3944 2.74804 39.4912 3.13297 39.5106 3.52559Z" fill="#767677"/>
<path d="M21.9062 38.3924C13.8936 38.3924 6.85127 35.5167 3.20996 31.27C4.6228 35.0904 7.17211 38.3863 10.5148 40.7141C13.8574 43.0418 17.833 44.2896 21.9062 44.2896C25.9795 44.2896 29.955 43.0418 33.2977 40.7141C36.6403 38.3863 39.1896 35.0904 40.6025 31.27C36.9701 35.5167 29.9545 38.3924 21.9062 38.3924Z" fill="#F37726"/>
<path d="M21.9062 10.7771C29.9189 10.7771 36.9612 13.6528 40.6025 17.8995C39.1896 14.0791 36.6403 10.7832 33.2977 8.45547C29.955 6.12773 25.9795 4.87988 21.9062 4.87988C17.833 4.87988 13.8574 6.12773 10.5148 8.45547C7.17211 10.7832 4.6228 14.0791 3.20996 17.8995C6.85127 13.6439 13.858 10.7771 21.9062 10.7771Z" fill="#F37726"/>
<path d="M10.876 46.6566C10.923 47.41 10.7447 48.1603 10.3637 48.8119C9.98278 49.4636 9.41646 49.9871 8.73693 50.3157C8.0574 50.6443 7.29542 50.7632 6.54808 50.6572C5.80073 50.5513 5.10185 50.2252 4.54048 49.7206C3.97911 49.216 3.58067 48.5557 3.39591 47.8238C3.21115 47.092 3.24845 46.3217 3.50305 45.6111C3.75765 44.9005 4.21802 44.2818 4.82551 43.8338C5.43301 43.3858 6.16012 43.1287 6.91421 43.0955C7.4082 43.069 7.90256 43.1402 8.36905 43.3049C8.83553 43.4696 9.265 43.7246 9.63291 44.0553C10.0008 44.386 10.3 44.7859 10.5133 45.2323C10.7266 45.6786 10.8498 46.1626 10.876 46.6566Z" fill="#9E9E9E"/>
<path d="M4.12073 9.80936C3.68898 9.82128 3.26334 9.70528 2.89734 9.47595C2.53134 9.24661 2.24132 8.91417 2.06376 8.52045C1.88619 8.12672 1.82901 7.68928 1.8994 7.26314C1.96979 6.837 2.1646 6.44118 2.45935 6.12547C2.7541 5.80976 3.13562 5.58825 3.55593 5.48879C3.97623 5.38933 4.41656 5.41637 4.82155 5.5665C5.22653 5.71664 5.57808 5.98317 5.83198 6.33257C6.08589 6.68197 6.23082 7.09865 6.24854 7.5302C6.26541 8.11373 6.05143 8.68037 5.65305 9.10708C5.25467 9.5338 4.70404 9.78616 4.12073 9.80936Z" fill="#616262"/>
</svg>
