<svg width="160" height="20" viewBox="0 0 160 20" fill="none" xmlns="http://www.w3.org/2000/svg">
<path d="M9.73679 20C15.4705 20 19.1933 15.5435 19.1933 9.97283C19.1933 4.4837 15.4433 0 9.73679 0C4.0031 0 0.280273 4.45652 0.280273 10.0272C0.280273 15.5163 4.03027 20 9.73679 20ZM10.8238 18.6957C6.12266 18.6957 3.3781 13.7228 3.3781 8.04348C3.3781 3.88587 5.93245 1.16848 8.84006 1.16848C13.5411 1.16848 16.0955 6.44022 16.0955 11.9565C16.0955 16.1141 13.7314 18.6957 10.8238 18.6957Z" fill="#FFFFFF"/>
<path d="M26.8277 20C27.7788 20 29.3005 19.538 31.1483 17.1467H31.2027L30.9853 19.9185L35.931 19.6467V18.8859H34.3549L33.5668 18.0163V6.05978L28.8114 6.33152V7.09239H30.1973L30.9853 7.96196V16.5217C30.1157 17.4185 29.219 18.288 27.9147 18.288C26.6647 18.288 25.6049 17.3913 25.6049 15.3804V6.05978L21.0397 6.33152V7.09239H22.2353L23.0233 7.96196V15.7609C23.0233 18.288 24.3005 20 26.8277 20Z" fill="#FFFFFF"/>
<path d="M41.5315 20C43.2435 20 44.1131 18.913 44.9283 17.7174L44.4935 17.337C43.787 18.0707 43.2978 18.3967 42.7272 18.3967C41.1511 18.3967 41.2598 16.3587 41.2598 14.8641V7.22826H44.9011V6.33152H41.2598V2.74457H40.7707L38.6239 6.33152H36.8576V6.95652L38.6783 7.36413V15.3261C38.6783 17.663 38.9228 20 41.5315 20Z" fill="#FFFFFF"/>
<path d="M52.1334 20C55.6388 20 57.1606 17.3641 57.9214 15.0815L57.2693 14.7826C56.1008 16.9565 55.0682 17.7989 52.9486 17.7989C50.3399 17.7989 48.628 15.5435 48.628 12.1196C48.628 11.8478 48.628 11.5489 48.6551 11.25L56.9432 11.4674L57.2693 11.1685C57.2964 11.0054 57.2964 10.8152 57.2964 10.625C57.2964 8.75 56.0464 5.97826 52.3236 5.97826C48.8454 5.97826 46.2638 9.21196 46.2638 13.1522C46.2638 17.3098 48.7095 20 52.1334 20ZM48.7638 10.4076C49.0084 8.6413 49.9867 6.875 51.7258 6.875C53.7367 6.875 54.2801 8.28804 54.2801 9.91848L53.7095 10.4076H48.7638Z" fill="#FFFFFF"/>
<path d="M59.3907 19.6467H66.9723V18.8859H64.8255L64.0647 18.0163V10.4348C64.7712 9.42935 65.7766 8.69565 66.7005 8.69565C67.4071 8.69565 68.0049 8.91304 68.5484 9.51087H68.6571L69.744 6.82065C69.4723 6.41304 68.7114 5.97826 67.706 5.97826C65.9125 5.97826 64.581 8.17935 63.8201 9.8913H63.7114V6.05978L59.3907 6.33152V7.09239H60.7766L61.5647 7.96196V18.0163L60.7766 18.8859H59.3907V19.6467Z" fill="#FFFFFF"/>
<path d="M77.3538 20C81.6472 20 83.9842 16.6576 83.9842 12.5C83.9842 8.8587 82.0005 5.97826 78.5494 5.97826C76.7559 5.97826 75.7233 6.82065 74.5277 8.0163H74.4733V0.0815223L69.9081 0.353261V1.11413H71.1038L71.8918 1.9837V18.8043C73.2233 19.6467 75.1527 20 77.3538 20ZM77.6798 19.1304C76.2668 19.1304 75.0983 18.288 74.4733 17.3098V9.04891C75.2342 8.34239 75.9951 7.63587 77.2451 7.63587C79.8538 7.63587 81.2668 10.5978 81.2668 13.5054C81.2668 16.1141 80.2885 19.1304 77.6798 19.1304Z" fill="#FFFFFF"/>
<path d="M92.9134 20C96.6905 20 99.4895 16.9293 99.4895 12.9076C99.4895 8.75 96.7449 5.97826 92.8318 5.97826C89.0003 5.97826 86.2286 8.91304 86.2286 12.8804C86.2286 16.9837 88.8916 20 92.9134 20ZM93.2666 19.1033C90.359 19.1033 89.0275 14.837 89.0275 12.1196C89.0275 9.56522 90.0058 6.875 92.4786 6.875C95.359 6.875 96.6634 11.1141 96.6634 13.8043C96.6634 16.3043 95.7123 19.1033 93.2666 19.1033Z" fill="#FFFFFF"/>
<path d="M106.916 20C107.868 20 109.389 19.538 111.237 17.1467H111.291L111.074 19.9185L116.02 19.6467V18.8859H114.444L113.656 18.0163V6.05978L108.9 6.33152V7.09239H110.286L111.074 7.96196V16.5217C110.204 17.4185 109.308 18.288 108.003 18.288C106.753 18.288 105.694 17.3913 105.694 15.3804V6.05978L101.128 6.33152V7.09239H102.324L103.112 7.96196V15.7609C103.112 18.288 104.389 20 106.916 20Z" fill="#FFFFFF"/>
<path d="M117.082 19.6467H124.039V18.8859H122.599L121.838 18.0163V9.45652C122.707 8.55978 123.685 7.69022 124.963 7.69022C126.24 7.69022 127.381 8.58696 127.381 10.5978V18.0163L126.62 18.8859H125.153V19.6467H132.137V18.8859H130.778L129.963 18.0163V10.2174C129.963 7.69022 128.604 5.97826 126.077 5.97826C125.126 5.97826 123.522 6.44022 121.675 8.69565H121.62L121.838 6.05978L117.082 6.33152V7.09239H118.468L119.256 7.96196V18.0163L118.468 18.8859H117.082V19.6467Z" fill="#FFFFFF"/>
<path d="M139.086 20C140.879 20 142.075 19.1304 143.406 17.6087H143.461L143.162 19.9185L148.162 19.6467V18.8859H146.531L145.743 18.0163V0.0815223L140.444 0.353261V1.11413H142.374L143.162 1.9837V6.71196H143.107C142.292 6.30435 141.287 5.97826 140.281 5.97826C135.988 5.97826 133.651 9.32065 133.651 13.4783C133.651 17.1196 135.635 20 139.086 20ZM140.39 18.3424C137.781 18.3424 136.368 15.3804 136.368 12.4728C136.368 9.86413 137.347 6.84783 139.955 6.84783C141.368 6.84783 142.727 7.96196 143.162 9.21196V16.9293C142.401 17.6359 141.694 18.3424 140.39 18.3424Z" fill="#FFFFFF"/>
<path d="M154.981 20C157.046 20 159.138 18.6957 159.138 16.087C159.138 11.6033 151.883 11.5761 151.883 8.58696C151.883 7.3913 152.834 6.84783 153.731 6.84783C155.361 6.84783 156.774 8.2337 157.372 10.1902L157.562 10.8152H158.377V6.05978H157.644L157.372 6.57609C156.774 6.33152 155.551 5.97826 154.274 5.97826C151.883 5.97826 149.981 7.25543 149.981 9.59239C149.981 13.9674 157.29 13.913 157.29 17.337C157.29 18.4239 156.502 19.0489 155.307 19.0489C153.731 19.0489 152.046 17.5543 150.986 15.4076L150.66 14.7554H149.845V19.9185H150.551L151.095 18.8859C151.638 19.2935 153.079 20 154.981 20Z" fill="#FFFFFF"/>
</svg>

