<svg width="64" height="64" viewBox="0 0 64 64" fill="none" xmlns="http://www.w3.org/2000/svg">
<rect width="64" height="64" rx="32" fill="#009AF1"/>
<path d="M44 38.1625V25.8375C43.999 25.6595 43.9512 25.4849 43.8612 25.3313C43.7712 25.1776 43.6423 25.0504 43.4875 24.9625L32.4875 18.775C32.3393 18.6895 32.1711 18.6444 32 18.6444C31.8289 18.6444 31.6607 18.6895 31.5125 18.775L20.5125 24.9625C20.3577 25.0504 20.2288 25.1776 20.1388 25.3313C20.0488 25.4849 20.001 25.6595 20 25.8375V38.1625C20.001 38.3406 20.0488 38.5152 20.1388 38.6688C20.2288 38.8224 20.3577 38.9496 20.5125 39.0375L31.5125 45.225C31.6607 45.3106 31.8289 45.3557 32 45.3557C32.1711 45.3557 32.3393 45.3106 32.4875 45.225L43.4875 39.0375C43.6423 38.9496 43.7712 38.8224 43.8612 38.6688C43.9512 38.5152 43.999 38.3406 44 38.1625V38.1625Z" stroke="#F9FAFB" stroke-width="2" stroke-linecap="round" stroke-linejoin="round"/>
<path d="M38.125 35.0625V28.5625L26 21.875" stroke="#F9FAFB" stroke-width="2" stroke-linecap="round" stroke-linejoin="round"/>
<path d="M43.8624 25.325L32.1125 32L20.1375 25.325" stroke="#F9FAFB" stroke-width="2" stroke-linecap="round" stroke-linejoin="round"/>
<path d="M32.1125 32L32 45.35" stroke="#F9FAFB" stroke-width="2" stroke-linecap="round" stroke-linejoin="round"/>
</svg>

