<svg width="175" height="26" viewBox="0 0 175 26" fill="none" xmlns="http://www.w3.org/2000/svg">
<g clip-path="url(#clip0_39_234)">
<path d="M17.4871 9.07788V17.5389C17.4871 22.2101 13.6973 25.9999 9.02608 25.9999C4.3549 25.9999 0.520996 22.2101 0.520996 17.5389C0.520996 12.8677 4.31083 9.07788 8.98202 9.07788H17.4871Z" fill="#FFFFFF"/>
<path d="M25.948 4.3627C25.948 2.33559 24.3174 0.705078 22.2903 0.705078C20.2632 0.705078 18.5886 2.33559 18.5886 4.3627C18.5886 6.38982 20.2191 8.02033 22.2463 8.02033C24.2734 8.02033 25.948 6.38982 25.948 4.3627Z" fill="#FFFFFF"/>
<path d="M40.711 3.1731H37.1415V5.64089C37.1415 7.09513 36.3483 8.24089 34.5856 8.24089H33.7483V11.7222H36.789V20.0511C36.789 23.1358 38.6839 24.9867 41.7686 24.9867C43.1788 24.9867 43.928 24.7222 44.1924 24.6341V21.3731C44.0161 21.4172 43.3991 21.5053 42.8263 21.5053C41.372 21.5053 40.711 20.8883 40.711 19.4341V11.7222H44.1483V8.24089H40.711V3.1731Z" fill="#FFFFFF"/>
<path d="M56.7957 8.1084C56.6195 8.06433 56.2229 8.02026 55.7381 8.02026C53.5788 8.02026 51.728 9.07789 50.9347 10.8847V8.2406H47.1008V24.766H51.0229V16.8779C51.0229 13.7931 52.433 12.0304 55.4737 12.0304C55.8703 12.0304 56.311 12.0745 56.7517 12.1186V8.1084H56.7957Z" fill="#FFFFFF"/>
<path d="M78.7864 15.2034C78.7864 13.0441 79.9762 11.2814 82.2237 11.2814C84.6915 11.2814 85.6169 12.9119 85.6169 14.939V24.7221H89.539V14.278C89.539 10.6645 87.6 7.71191 83.5457 7.71191C81.6949 7.71191 79.7559 8.50513 78.6542 10.4001V8.19666H74.8203V24.7221H78.7423V15.2034H78.7864Z" fill="#FFFFFF"/>
<path d="M91.521 20.2714C91.7413 22.1222 93.5481 25.251 98.3515 25.251C102.582 25.251 104.609 22.4748 104.609 19.9629C104.609 17.5392 102.979 15.6002 99.8498 14.9392L97.3379 14.4103C96.3244 14.19 95.6634 13.5731 95.6634 12.6917C95.6634 11.6781 96.6329 10.7968 98.043 10.7968C100.246 10.7968 100.952 12.3392 101.084 13.2646L104.433 12.2951C104.168 10.6646 102.67 7.66797 98.043 7.66797C94.6057 7.66797 91.9617 10.0917 91.9617 13.0002C91.9617 15.2917 93.5041 17.1866 96.4125 17.8036L98.8363 18.3324C100.158 18.5968 100.775 19.3019 100.775 20.1832C100.775 21.1968 99.9379 22.0781 98.3074 22.0781C96.1922 22.0781 95.0905 20.7561 94.9583 19.2578L91.521 20.2714Z" fill="#FFFFFF"/>
<path d="M115.626 3.52542C116.375 3.52542 116.816 3.61356 117.036 3.70169L117.256 0.352542C116.992 0.220339 116.155 0 115.185 0C111.792 0 109.192 2.24746 109.192 5.94915V8.24068H106.283V11.678H109.192V24.7661H113.158V11.6339H116.992V8.19661H113.158V6.03729C113.202 4.01017 114.568 3.52542 115.626 3.52542Z" fill="#FFFFFF"/>
<path d="M126.6 7.71191C121.664 7.71191 118.051 11.4136 118.051 16.4814C118.051 21.5933 121.664 25.295 126.6 25.295C131.579 25.295 135.193 21.5933 135.193 16.4814C135.193 11.4136 131.535 7.71191 126.6 7.71191ZM126.6 21.7255C124.176 21.7255 121.973 19.8746 121.973 16.4814C121.973 13.0882 124.176 11.2814 126.6 11.2814C129.023 11.2814 131.227 13.0441 131.227 16.4814C131.227 19.9187 129.023 21.7255 126.6 21.7255Z" fill="#FFFFFF"/>
<path d="M147.223 8.1084C147.047 8.06433 146.65 8.02026 146.166 8.02026C144.006 8.02026 142.155 9.07789 141.362 10.8847V8.2406H137.528V24.766H141.45V16.8779C141.45 13.7931 142.861 12.0304 145.901 12.0304C146.298 12.0304 146.738 12.0745 147.179 12.1186V8.1084H147.223Z" fill="#FFFFFF"/>
<path d="M153.348 24.7662V14.939C153.348 12.8238 154.67 11.2814 156.786 11.2814C159.033 11.2814 159.958 12.7797 159.958 14.6746V24.7662H163.836V14.939C163.836 12.9119 165.203 11.2814 167.274 11.2814C169.477 11.2814 170.447 12.7356 170.447 14.6746V24.7662H174.236V14.0136C174.236 9.6509 171.372 7.71191 168.375 7.71191C166.216 7.71191 164.321 8.46107 162.999 10.6204C162.118 8.68141 160.223 7.71191 158.019 7.71191C156.169 7.71191 154.097 8.59327 153.128 10.3119V8.19666H149.338V24.7221H153.348V24.7662Z" fill="#FFFFFF"/>
<path d="M72.3508 22.1221V13.8814C72.3508 10.5763 70.4119 7.71191 65.3 7.71191C61.2458 7.71191 58.6458 10.2678 58.3373 13.1323L61.9508 13.9695C62.1271 12.295 63.2729 10.9729 65.3441 10.9729C67.5034 10.9729 68.4729 12.0746 68.4729 13.4848C68.4729 14.0577 68.2085 14.5424 67.239 14.6746L63.0085 15.3356C60.1881 15.7322 58.0288 17.3628 58.0288 20.3153C58.0288 22.9153 60.1881 25.295 63.6254 25.295C66.3136 25.295 67.9441 23.9289 68.7373 22.695C68.7373 24.017 68.8695 24.678 68.9136 24.8102H72.5712C72.5271 24.5899 72.3508 23.6204 72.3508 22.1221ZM68.4729 17.8916C68.4729 21.1085 66.578 22.1661 64.3746 22.1661C62.8322 22.1661 61.9508 21.1526 61.9508 20.0068C61.9508 18.6407 62.9203 17.9797 64.1542 17.7594L68.4729 17.0984V17.8916Z" fill="#FFFFFF"/>
</g>
<defs>
<clipPath id="clip0_39_234">
<rect width="174" height="26" fill="white" transform="translate(0.520996)"/>
</clipPath>
</defs>
</svg>
