<svg width="49" height="48" viewBox="0 0 49 48" fill="none" xmlns="http://www.w3.org/2000/svg">
<path d="M1.70422 16.8909C1.70422 16.8909 0.569093 16.0693 1.93297 14.9736L5.10847 12.1258C5.10847 12.1258 6.01822 11.1662 6.97934 12.0028L36.295 34.2508V44.9196C36.295 44.9196 36.2803 46.5951 34.1361 46.4106L1.70422 16.8909Z" fill="#2489CA"/>
<path d="M9.26163 23.7671L1.70425 30.6532C1.70425 30.6532 0.928003 31.2318 1.70425 32.2676L5.21275 35.4652C5.21275 35.4652 6.046 36.3633 7.27825 35.3422L15.2879 29.253L9.26163 23.7671Z" fill="#1070B3"/>
<path d="M22.5272 23.8242L36.3846 13.2173L36.295 2.60597C36.295 2.60597 35.7032 0.289972 33.7288 1.49635L15.2878 18.3192L22.5272 23.8242Z" fill="#0877B9"/>
<path d="M34.1358 46.4241C34.9401 47.2502 35.9159 46.9791 35.9159 46.9791L46.7148 41.6459C48.0974 40.7009 47.9039 39.529 47.9039 39.529V7.6746C47.9039 6.27397 46.4744 5.7906 46.4744 5.7906L37.114 1.26772C35.0691 0.000595272 33.7289 1.49647 33.7289 1.49647C33.7289 1.49647 35.4513 0.252595 36.295 2.60647V44.7253C36.295 45.0152 36.2335 45.2991 36.1105 45.5556C35.8645 46.0551 35.3283 46.5193 34.0465 46.3247L34.1358 46.4241Z" fill="#3C99D4"/>
</svg>

